<svg width="81" height="143" viewBox="0 0 81 143" fill="none" xmlns="http://www.w3.org/2000/svg">
<path d="M80.5 0H0.5V80H80.5V0Z" fill="#87BCF6"/>
<path d="M73.7955 6.7041H7.20468V73.2953H73.7955V6.7041Z" fill="#252653"/>
<path fill-rule="evenodd" clip-rule="evenodd" d="M59.8125 31.4519C53.8885 28.4456 43.6895 29.9019 43.6895 37.7454C43.6895 43.5863 47.706 45.8853 52.6168 47.8149C59.5954 50.556 52.8133 55.7364 44.2943 50.3791C44.2943 50.3791 43.9893 50.2283 43.8394 50.3791C43.6895 50.53 43.6895 50.6808 43.6895 50.8368C43.6895 50.9877 43.6895 56.4646 43.6895 56.4646C46.667 57.9989 48.8898 58.7791 52.3274 58.7427C63.4155 58.6283 65.0128 47.945 59.1146 43.836C58.0446 43.087 55.1808 41.5943 54.2762 41.2458C49.5876 39.4462 49.9857 36.8872 51.4744 35.5973C53.1183 34.1669 57.6776 36.3306 59.5954 37.5373C60.7585 38.2603 60.9497 37.3605 60.9446 36.5699L60.9291 32.8302C60.9291 31.9408 60.6241 31.868 59.8125 31.4519ZM25.5711 40.7933V27.0933C25.5711 27.0256 25.8089 26.7916 25.8709 26.7916C31.6398 26.4951 34.9223 27.629 35.217 33.8288C35.553 40.9441 29.6238 41.095 25.5711 41.095V40.7933ZM18.6132 21.7672V58.5971H25.5711V46.7279C34.1211 47.3416 41.8337 44.2573 41.8337 34.3126C41.8337 30.3024 40.5931 26.2663 37.6517 23.8269C33.5421 20.4149 23.9376 21.1743 18.6132 21.7672Z" fill="#87BCF6"/>
<path d="M25.1539 120L24.4293 117.621H20.7857L20.0611 120H17.7779L21.3052 109.965H23.8961L27.4371 120H25.1539ZM23.9234 115.844L23.1988 113.52C23.1532 113.365 23.0917 113.166 23.0142 112.925C22.9413 112.679 22.8661 112.43 22.7886 112.18C22.7157 111.924 22.6565 111.703 22.6109 111.517C22.5653 111.703 22.5015 111.936 22.4195 112.214C22.342 112.487 22.2668 112.747 22.1939 112.993C22.121 113.239 22.0686 113.415 22.0367 113.52L21.3189 115.844H23.9234ZM31.2376 120.137C30.3854 120.137 29.6904 119.804 29.1526 119.139C28.6194 118.469 28.3528 117.487 28.3528 116.192C28.3528 114.884 28.624 113.896 29.1663 113.226C29.7086 112.551 30.4173 112.214 31.2923 112.214C31.6569 112.214 31.9781 112.264 32.2561 112.364C32.5341 112.465 32.7734 112.599 32.9739 112.768C33.179 112.936 33.3522 113.125 33.4934 113.335H33.5618C33.5345 113.189 33.5003 112.975 33.4593 112.692C33.4228 112.405 33.4046 112.111 33.4046 111.811V109.363H35.4964V120H33.8968L33.4934 119.009H33.4046C33.2724 119.218 33.1061 119.41 32.9055 119.583C32.7096 119.752 32.4749 119.886 32.2014 119.986C31.928 120.087 31.6067 120.137 31.2376 120.137ZM31.969 118.476C32.5387 118.476 32.9397 118.307 33.1721 117.97C33.4091 117.628 33.5345 117.115 33.5481 116.432V116.206C33.5481 115.463 33.4342 114.896 33.2063 114.504C32.9785 114.107 32.5546 113.909 31.9348 113.909C31.4746 113.909 31.1145 114.107 30.8548 114.504C30.595 114.9 30.4651 115.472 30.4651 116.22C30.4651 116.967 30.595 117.53 30.8548 117.908C31.1191 118.286 31.4905 118.476 31.969 118.476ZM44.9023 116.165C44.9023 116.803 44.8158 117.368 44.6426 117.86C44.474 118.353 44.2256 118.77 43.8975 119.111C43.5739 119.449 43.182 119.704 42.7217 119.877C42.266 120.05 41.751 120.137 41.1768 120.137C40.639 120.137 40.1445 120.05 39.6934 119.877C39.2467 119.704 38.8571 119.449 38.5244 119.111C38.1963 118.77 37.9411 118.353 37.7588 117.86C37.5811 117.368 37.4922 116.803 37.4922 116.165C37.4922 115.317 37.6426 114.6 37.9434 114.012C38.2441 113.424 38.6725 112.977 39.2285 112.672C39.7845 112.367 40.4476 112.214 41.2178 112.214C41.9333 112.214 42.5667 112.367 43.1182 112.672C43.6742 112.977 44.1094 113.424 44.4238 114.012C44.7428 114.6 44.9023 115.317 44.9023 116.165ZM39.6182 116.165C39.6182 116.666 39.6729 117.088 39.7822 117.43C39.8916 117.771 40.0625 118.029 40.2949 118.202C40.5273 118.375 40.8304 118.462 41.2041 118.462C41.5732 118.462 41.8717 118.375 42.0996 118.202C42.332 118.029 42.5007 117.771 42.6055 117.43C42.7148 117.088 42.7695 116.666 42.7695 116.165C42.7695 115.659 42.7148 115.24 42.6055 114.907C42.5007 114.57 42.332 114.317 42.0996 114.148C41.8672 113.98 41.5641 113.896 41.1904 113.896C40.639 113.896 40.238 114.085 39.9873 114.463C39.7412 114.841 39.6182 115.409 39.6182 116.165ZM48.99 109.363V111.838C48.99 112.125 48.9808 112.41 48.9626 112.692C48.9489 112.975 48.9307 113.194 48.9079 113.349H48.99C49.1905 113.034 49.4639 112.768 49.8103 112.549C50.1566 112.326 50.6055 112.214 51.157 112.214C52.0137 112.214 52.7087 112.549 53.2419 113.219C53.7751 113.889 54.0417 114.871 54.0417 116.165C54.0417 117.035 53.9187 117.767 53.6726 118.359C53.4265 118.947 53.0824 119.392 52.6404 119.692C52.1983 119.989 51.6856 120.137 51.1023 120.137C50.5417 120.137 50.0997 120.036 49.7761 119.836C49.4525 119.635 49.1905 119.41 48.99 119.159H48.8464L48.4978 120H46.905V109.363H48.99ZM50.487 113.882C50.1224 113.882 49.8331 113.957 49.6189 114.107C49.4047 114.258 49.2474 114.483 49.1472 114.784C49.0515 115.085 48.9991 115.465 48.99 115.926V116.151C48.99 116.894 49.0993 117.464 49.3181 117.86C49.5368 118.252 49.9356 118.448 50.5144 118.448C50.9428 118.448 51.2823 118.25 51.5329 117.854C51.7881 117.457 51.9157 116.885 51.9157 116.138C51.9157 115.39 51.7881 114.827 51.5329 114.449C51.2777 114.071 50.9291 113.882 50.487 113.882ZM59.1957 112.214C59.9021 112.214 60.5105 112.351 61.0209 112.624C61.5314 112.893 61.9256 113.285 62.2036 113.8C62.4815 114.315 62.6205 114.944 62.6205 115.687V116.698H57.6918C57.7146 117.286 57.8901 117.749 58.2182 118.086C58.5509 118.419 59.0112 118.585 59.5991 118.585C60.0867 118.585 60.5333 118.535 60.9389 118.435C61.3445 118.334 61.7615 118.184 62.1899 117.983V119.597C61.8116 119.784 61.4151 119.92 61.0004 120.007C60.5903 120.093 60.0912 120.137 59.5034 120.137C58.7377 120.137 58.0587 119.995 57.4662 119.713C56.8784 119.43 56.4158 119 56.0786 118.421C55.7459 117.842 55.5795 117.113 55.5795 116.233C55.5795 115.34 55.7299 114.597 56.0307 114.005C56.336 113.408 56.7599 112.961 57.3022 112.665C57.8445 112.364 58.4757 112.214 59.1957 112.214ZM59.2094 113.697C58.8038 113.697 58.4666 113.827 58.1977 114.087C57.9334 114.347 57.7807 114.755 57.7397 115.311H60.6655C60.6609 115.001 60.6039 114.725 60.4946 114.483C60.3898 114.242 60.2302 114.05 60.0161 113.909C59.8064 113.768 59.5375 113.697 59.2094 113.697ZM6.28039 129.006C7.57011 129.006 8.51119 129.284 9.10363 129.84C9.69608 130.391 9.99231 131.152 9.99231 132.123C9.99231 132.561 9.92623 132.98 9.79406 133.381C9.6619 133.777 9.44543 134.131 9.14465 134.44C8.84843 134.75 8.45194 134.996 7.9552 135.179C7.45845 135.356 6.8455 135.445 6.11633 135.445H5.20715V139H3.08801V129.006H6.28039ZM6.17102 130.742H5.20715V133.709H5.90442C6.3009 133.709 6.64498 133.657 6.93664 133.552C7.22831 133.447 7.45389 133.283 7.6134 133.06C7.7729 132.836 7.85266 132.549 7.85266 132.198C7.85266 131.706 7.71594 131.341 7.4425 131.104C7.16906 130.863 6.74524 130.742 6.17102 130.742ZM14.0799 128.363V130.53C14.0799 130.909 14.0663 131.269 14.0389 131.61C14.0161 131.952 13.9979 132.194 13.9842 132.335H14.0936C14.2577 132.071 14.4513 131.856 14.6746 131.692C14.9025 131.528 15.1532 131.408 15.4266 131.33C15.7 131.253 15.994 131.214 16.3084 131.214C16.8599 131.214 17.3407 131.312 17.7508 131.508C18.161 131.699 18.48 132.002 18.7079 132.417C18.9357 132.827 19.0496 133.36 19.0496 134.017V139H16.9647V134.536C16.9647 133.989 16.8644 133.577 16.6639 133.299C16.4634 133.021 16.1535 132.882 15.7342 132.882C15.3149 132.882 14.9845 132.98 14.743 133.176C14.5015 133.367 14.3306 133.652 14.2303 134.03C14.1301 134.404 14.0799 134.862 14.0799 135.404V139H11.995V128.363H14.0799ZM28.4214 135.165C28.4214 135.803 28.3349 136.368 28.1617 136.86C27.9931 137.353 27.7447 137.77 27.4166 138.111C27.093 138.449 26.7011 138.704 26.2408 138.877C25.7851 139.05 25.2701 139.137 24.6959 139.137C24.1581 139.137 23.6636 139.05 23.2125 138.877C22.7658 138.704 22.3762 138.449 22.0435 138.111C21.7154 137.77 21.4602 137.353 21.2779 136.86C21.1002 136.368 21.0113 135.803 21.0113 135.165C21.0113 134.317 21.1617 133.6 21.4625 133.012C21.7632 132.424 22.1916 131.977 22.7476 131.672C23.3036 131.367 23.9667 131.214 24.7369 131.214C25.4524 131.214 26.0858 131.367 26.6373 131.672C27.1933 131.977 27.6285 132.424 27.9429 133.012C28.2619 133.6 28.4214 134.317 28.4214 135.165ZM23.1373 135.165C23.1373 135.666 23.192 136.088 23.3013 136.43C23.4107 136.771 23.5816 137.029 23.814 137.202C24.0464 137.375 24.3495 137.462 24.7232 137.462C25.0923 137.462 25.3908 137.375 25.6187 137.202C25.8511 137.029 26.0198 136.771 26.1246 136.43C26.2339 136.088 26.2886 135.666 26.2886 135.165C26.2886 134.659 26.2339 134.24 26.1246 133.907C26.0198 133.57 25.8511 133.317 25.6187 133.148C25.3863 132.98 25.0832 132.896 24.7095 132.896C24.1581 132.896 23.7571 133.085 23.5064 133.463C23.2603 133.841 23.1373 134.409 23.1373 135.165ZM33.6438 137.476C33.8717 137.476 34.0927 137.453 34.3069 137.407C34.5257 137.362 34.7421 137.305 34.9563 137.236V138.788C34.733 138.888 34.455 138.97 34.1223 139.034C33.7942 139.103 33.4342 139.137 33.0423 139.137C32.5865 139.137 32.1764 139.064 31.8118 138.918C31.4518 138.768 31.1669 138.51 30.9573 138.146C30.7522 137.776 30.6497 137.264 30.6497 136.607V132.923H29.6516V132.041L30.8001 131.344L31.4016 129.73H32.7346V131.357H34.8743V132.923H32.7346V136.607C32.7346 136.899 32.8167 137.118 32.9807 137.264C33.1494 137.405 33.3704 137.476 33.6438 137.476ZM43.7334 135.165C43.7334 135.803 43.6468 136.368 43.4736 136.86C43.305 137.353 43.0566 137.77 42.7285 138.111C42.4049 138.449 42.013 138.704 41.5527 138.877C41.097 139.05 40.582 139.137 40.0078 139.137C39.4701 139.137 38.9756 139.05 38.5244 138.877C38.0778 138.704 37.6882 138.449 37.3555 138.111C37.0273 137.77 36.7721 137.353 36.5898 136.86C36.4121 136.368 36.3232 135.803 36.3232 135.165C36.3232 134.317 36.4736 133.6 36.7744 133.012C37.0752 132.424 37.5036 131.977 38.0596 131.672C38.6156 131.367 39.2786 131.214 40.0488 131.214C40.7643 131.214 41.3978 131.367 41.9492 131.672C42.5052 131.977 42.9404 132.424 43.2549 133.012C43.5739 133.6 43.7334 134.317 43.7334 135.165ZM38.4492 135.165C38.4492 135.666 38.5039 136.088 38.6133 136.43C38.7227 136.771 38.8936 137.029 39.126 137.202C39.3584 137.375 39.6615 137.462 40.0352 137.462C40.4043 137.462 40.7028 137.375 40.9307 137.202C41.1631 137.029 41.3317 136.771 41.4365 136.43C41.5459 136.088 41.6006 135.666 41.6006 135.165C41.6006 134.659 41.5459 134.24 41.4365 133.907C41.3317 133.57 41.1631 133.317 40.9307 133.148C40.6982 132.98 40.3952 132.896 40.0215 132.896C39.4701 132.896 39.069 133.085 38.8184 133.463C38.5723 133.841 38.4492 134.409 38.4492 135.165ZM51.0681 136.73C51.0681 137.25 50.945 137.69 50.6989 138.05C50.4574 138.405 50.0951 138.676 49.612 138.863C49.129 139.046 48.5274 139.137 47.8073 139.137C47.2741 139.137 46.8161 139.103 46.4333 139.034C46.0551 138.966 45.6723 138.852 45.2849 138.692V136.97C45.6996 137.157 46.1439 137.312 46.6179 137.435C47.0964 137.553 47.5157 137.612 47.8757 137.612C48.2813 137.612 48.5707 137.553 48.7439 137.435C48.9216 137.312 49.0105 137.152 49.0105 136.956C49.0105 136.828 48.974 136.715 48.9011 136.614C48.8327 136.509 48.6823 136.393 48.4499 136.266C48.2175 136.133 47.8529 135.963 47.3562 135.753C46.8777 135.552 46.4835 135.35 46.1736 135.145C45.8682 134.939 45.6404 134.698 45.49 134.42C45.3441 134.137 45.2712 133.78 45.2712 133.347C45.2712 132.64 45.5447 132.109 46.0915 131.754C46.643 131.394 47.379 131.214 48.2995 131.214C48.7735 131.214 49.2247 131.262 49.653 131.357C50.086 131.453 50.5303 131.606 50.9861 131.815L50.3572 133.319C49.9789 133.155 49.6211 133.021 49.2839 132.916C48.9512 132.811 48.6117 132.759 48.2654 132.759C47.96 132.759 47.7299 132.8 47.5749 132.882C47.42 132.964 47.3425 133.089 47.3425 133.258C47.3425 133.381 47.3812 133.49 47.4587 133.586C47.5407 133.682 47.6957 133.789 47.9236 133.907C48.156 134.021 48.4955 134.169 48.9421 134.352C49.3751 134.529 49.751 134.716 50.07 134.912C50.3891 135.104 50.6351 135.343 50.8083 135.63C50.9815 135.912 51.0681 136.279 51.0681 136.73ZM55.06 128.363V130.53C55.06 130.909 55.0463 131.269 55.019 131.61C54.9962 131.952 54.978 132.194 54.9643 132.335H55.0737C55.2377 132.071 55.4314 131.856 55.6547 131.692C55.8826 131.528 56.1332 131.408 56.4067 131.33C56.6801 131.253 56.9741 131.214 57.2885 131.214C57.8399 131.214 58.3207 131.312 58.7309 131.508C59.1411 131.699 59.4601 132.002 59.6879 132.417C59.9158 132.827 60.0297 133.36 60.0297 134.017V139H57.9448V134.536C57.9448 133.989 57.8445 133.577 57.644 133.299C57.4435 133.021 57.1336 132.882 56.7143 132.882C56.295 132.882 55.9646 132.98 55.7231 133.176C55.4816 133.367 55.3107 133.652 55.2104 134.03C55.1101 134.404 55.06 134.862 55.06 135.404V139H52.975V128.363H55.06ZM69.4015 135.165C69.4015 135.803 69.3149 136.368 69.1418 136.86C68.9731 137.353 68.7248 137.77 68.3966 138.111C68.0731 138.449 67.6811 138.704 67.2209 138.877C66.7651 139.05 66.2502 139.137 65.6759 139.137C65.1382 139.137 64.6437 139.05 64.1925 138.877C63.7459 138.704 63.3563 138.449 63.0236 138.111C62.6955 137.77 62.4403 137.353 62.258 136.86C62.0802 136.368 61.9914 135.803 61.9914 135.165C61.9914 134.317 62.1418 133.6 62.4425 133.012C62.7433 132.424 63.1717 131.977 63.7277 131.672C64.2837 131.367 64.9468 131.214 65.717 131.214C66.4324 131.214 67.0659 131.367 67.6173 131.672C68.1733 131.977 68.6086 132.424 68.923 133.012C69.242 133.6 69.4015 134.317 69.4015 135.165ZM64.1173 135.165C64.1173 135.666 64.172 136.088 64.2814 136.43C64.3908 136.771 64.5617 137.029 64.7941 137.202C65.0265 137.375 65.3296 137.462 65.7033 137.462C66.0724 137.462 66.3709 137.375 66.5988 137.202C66.8312 137.029 66.9998 136.771 67.1046 136.43C67.214 136.088 67.2687 135.666 67.2687 135.165C67.2687 134.659 67.214 134.24 67.1046 133.907C66.9998 133.57 66.8312 133.317 66.5988 133.148C66.3664 132.98 66.0633 132.896 65.6896 132.896C65.1382 132.896 64.7371 133.085 64.4865 133.463C64.2404 133.841 64.1173 134.409 64.1173 135.165ZM75.6561 131.214C76.5175 131.214 77.2124 131.549 77.7411 132.219C78.2743 132.889 78.5409 133.871 78.5409 135.165C78.5409 136.031 78.4156 136.76 78.1649 137.353C77.9143 137.94 77.5679 138.385 77.1259 138.686C76.6838 138.986 76.1757 139.137 75.6014 139.137C75.2323 139.137 74.9156 139.091 74.6512 139C74.3869 138.904 74.1613 138.784 73.9745 138.638C73.7876 138.487 73.6259 138.328 73.4891 138.159H73.3798C73.4162 138.341 73.4436 138.528 73.4618 138.72C73.48 138.911 73.4891 139.098 73.4891 139.28V142.363H71.4042V131.357H73.0995L73.3934 132.349H73.4891C73.6259 132.144 73.7922 131.954 73.9882 131.781C74.1841 131.608 74.4188 131.471 74.6923 131.371C74.9703 131.266 75.2915 131.214 75.6561 131.214ZM74.9862 132.882C74.6216 132.882 74.3322 132.957 74.118 133.107C73.9038 133.258 73.7466 133.483 73.6464 133.784C73.5507 134.085 73.4983 134.465 73.4891 134.926V135.151C73.4891 135.644 73.5347 136.061 73.6259 136.402C73.7216 136.744 73.8788 137.004 74.0975 137.182C74.3208 137.359 74.6262 137.448 75.0135 137.448C75.3326 137.448 75.5946 137.359 75.7997 137.182C76.0048 137.004 76.1574 136.744 76.2577 136.402C76.3625 136.056 76.4149 135.634 76.4149 135.138C76.4149 134.39 76.2987 133.827 76.0663 133.449C75.8339 133.071 75.4738 132.882 74.9862 132.882Z" fill="#828282"/>
</svg>
